<svg id="Capa_1" enable-background="new 0 0 497 497" height="512" viewBox="0 0 497 497" width="512" xmlns="http://www.w3.org/2000/svg"><g id="_x3C_Group_x3E__90_"><path d="m435 448.718c0 3.927-1.811 7.744-5.228 11.399-19.787 21.164-79.081 23.553-167.592 30.022-102.726 7.506-190.18-14.756-190.18-41.421 0-12.073 7.117-23.111 35.41-31.577 34.198-10.232 84.723-16.705 141.09-16.705 103.001 0 186.5 21.617 186.5 48.282z" fill="#ffeee5"/><path d="m288.5 477c-103.001 0-186.5-21.617-186.5-48.282 0-3.991 1.883-7.867 5.409-11.576-28.292 8.466-45.409 19.503-45.409 31.576 0 26.665 83.499 48.282 186.5 48.282 87.587 0 161.058-15.632 181.091-36.706-34.198 10.232-84.724 16.706-141.091 16.706z" fill="#ffdecf"/><path d="m423.732 150.12c17.399 98.751-50.52 198.192-153.323 283.33-5.131 4.25-10.35 6.464-15.649 10.64-3.672 2.894-8.852 2.872-12.498-.056-110.564-88.778-185.287-190.234-167.02-293.914 9.154-51.956 39.698-101.309 88.507-128.47 24.46-13.612 53.005-21.65 84.738-21.65 95.055 0 161.504 72.126 175.245 150.12z" fill="#e175a5"/><path d="m270.41 433.451c-113.08-81.858-192.801-186.421-174.534-290.101 7.594-43.104 32.661-93.639 68.384-121.975-49.09 27.102-81.832 76.609-91.018 128.745-18.267 103.68 58.456 207.136 169.021 295.915 3.646 2.927 8.805 2.923 12.498.056 5.885-4.57 15.649-12.64 15.649-12.64z" fill="#de5791"/><path d="m386.371 179.094c0-76.144-61.727-137.871-137.871-137.871s-133.553 59.58-133.553 135.724 59.568 137.872 135.712 137.872 135.712-59.581 135.712-135.725z" fill="#edf6ff"/><path d="m273.5 301.965c-76.144 0-137.871-61.727-137.871-137.871 0-44.999 21.562-84.959 54.914-110.123-47.186 21.894-79.914 69.683-79.914 125.123 0 76.144 61.727 137.871 137.871 137.871 31.145 0 59.67-10.524 82.753-27.94-17.62 8.175-37.05 12.94-57.753 12.94z" fill="#ddebfd"/><path d="m258.516 257.778c-5.123 5.115-11.378 3.839-16.501-1.277l-63.854-63.761c-3.425-3.398-12.062-12.96-12.061-30.041.001-25.493 18.624-44.883 44.117-44.883 16.503 0 30.866 8.66 39.027 21.684 8.161-13.023 22.534-21.684 39.036-21.684 25.465 0 46.133 21.662 46.15 47.127.009 13.767-8.173 24.683-11.956 28.959-.063.072-.126.137-.193.205z" fill="#de5791"/><path d="m269.219 247.091-72.101-72.075c-3.425-3.398-12.062-12.96-12.061-30.04 0-8.411 2.261-16.289 6.191-23.08-16.029 7.237-27.19 23.35-27.191 42.08-.001 17.08 8.636 26.643 12.061 30.04l63.854 63.761c5.123 5.115 13.421 5.115 18.544 0z" fill="#db387e"/></g></svg>